<?xml version="1.0" encoding="utf-8"?>
<!-- Generator: Adobe Illustrator 25.2.0, SVG Export Plug-In . SVG Version: 6.00 Build 0)  -->
<svg version="1.1" id="Aspose.OCR" xmlns="http://www.w3.org/2000/svg" xmlns:xlink="http://www.w3.org/1999/xlink" x="0px" y="0px"
	 viewBox="0 0 277 277" style="enable-background:new 0 0 277 277;" xml:space="preserve">
<style type="text/css">
	.st0{fill-rule:evenodd;clip-rule:evenodd;fill:#FFFFFF;}
	.st1{fill-rule:evenodd;clip-rule:evenodd;fill:#A4C547;}
	.st2{fill:#A4C547;}
</style>
<g id="_x2E_NET_2_">
	<path id="XMLID_12_" class="st0" d="M180.46,87.48c-25.78,0-47.67,9.07-65.69,27.2c-18.12,18.02-27.18,39.93-27.18,65.72
		s9.06,47.65,27.18,65.56c6.65,6.78,13.85,12.3,21.61,16.56H23.59c-1.8-0.11-3.55-0.62-5.23-1.52c-2.81-1.35-4.22-4-4.22-7.94V23.62
		c0.22-2.03,0.67-3.77,1.35-5.24c1.46-2.82,4.17-4.22,8.1-4.22h229.47l1.52,0.34c1.35,0.23,2.53,0.56,3.55,1.01
		c2.93,1.35,4.39,4.05,4.39,8.11v112.87c-4.26-7.79-9.77-15.06-16.55-21.79C227.74,96.55,205.9,87.48,180.46,87.48z"/>
	<g>
		<path id="XMLID_9_" class="st1" d="M180.46,87.48c25.44,0,47.28,9.07,65.51,27.2c6.78,6.74,12.29,14,16.55,21.79V23.62
			c0-4.06-1.46-6.76-4.39-8.11c-1.01-0.45-2.2-0.79-3.55-1.01l-1.52-0.34H23.59c-3.94,0-6.64,1.41-8.1,4.22
			c-0.68,1.46-1.13,3.21-1.35,5.24v229.45c0,3.94,1.41,6.59,4.22,7.94c1.69,0.9,3.43,1.41,5.23,1.52h112.79
			c-7.76-4.26-14.96-9.78-21.61-16.56c-18.12-17.91-27.18-39.76-27.18-65.56s9.06-47.7,27.18-65.72
			C132.78,96.55,154.68,87.48,180.46,87.48z M259.14,3.68c2.48,0.45,4.39,1.07,5.74,1.86c5.63,2.7,8.44,7.6,8.44,14.7v160.18
			c0,25.68-9.12,47.54-27.36,65.56c-18.23,18.25-40.07,27.37-65.51,27.37H20.21c-2.7,0-5.52-0.67-8.44-2.03
			c-5.63-2.93-8.44-7.88-8.44-14.87V20.24c0-2.82,0.73-5.63,2.19-8.45c2.7-5.63,7.6-8.45,14.69-8.45h236.23L259.14,3.68z"/>
		<g>
			<path class="st2" d="M92.24,66.92c0,9.53-2.38,16.94-7.15,22.22c-4.76,5.29-11.51,7.93-20.24,7.93c-8.84,0-15.62-2.62-20.36-7.87
				s-7.11-12.7-7.11-22.36s2.38-17.08,7.15-22.26c4.76-5.18,11.56-7.77,20.4-7.77c8.7,0,15.43,2.63,20.18,7.89
				C89.86,49.96,92.24,57.37,92.24,66.92z M47.55,66.92c0,7.21,1.45,12.67,4.36,16.4c2.91,3.72,7.22,5.59,12.93,5.59
				c5.69,0,9.98-1.84,12.87-5.53s4.34-9.17,4.34-16.46c0-7.18-1.44-12.63-4.3-16.34c-2.87-3.71-7.15-5.57-12.83-5.57
				c-5.74,0-10.07,1.86-12.99,5.57C49.02,54.3,47.55,59.74,47.55,66.92z"/>
		</g>
	</g>
	<g>
		<path class="st0" d="M207.06,170.91c6.48,6.45,12.94,12.78,19.29,19.21c5.14,5.21,2.97,13.38-4,15.19
			c-3.58,0.93-6.53-0.38-9.06-2.91c-5.65-5.66-11.31-11.29-16.94-16.97c-0.68-0.68-1.16-1.55-1.77-2.39
			c-11.38,6.03-22.67,7.04-34.17,2.38c-8.35-3.39-14.65-9.23-18.91-17.17c-8.48-15.82-4.62-35.42,9.21-47.02
			c13.57-11.38,33.74-11.61,47.7-0.65C211.72,131.02,218.4,151.4,207.06,170.91z M149.06,150.45c0.01,14.33,11.66,25.93,26,25.91
			c14.22-0.02,26.07-11.96,25.91-26.1c-0.16-14.13-11.89-25.8-25.97-25.83C160.78,124.4,149.05,136.17,149.06,150.45z"/>
		<path class="st0" d="M137.29,211.96c0-4.53,0-8.86,0-13.35c4.45,0,8.72,0,13.24,0c0,4.39,0,8.78,0,13.35
			C146.18,211.96,141.92,211.96,137.29,211.96z"/>
		<path class="st0" d="M175.71,211.91c-4.5,0-8.92,0-13.49,0c0-4.43,0-8.69,0-13.22c4.44,0,8.85,0,13.49,0
			C175.71,203.02,175.71,207.35,175.71,211.91z"/>
		<path class="st0" d="M137.34,226.9c4.5,0,8.75,0,13.24,0c0,4.47,0,8.78,0,13.32c-4.35,0-8.67,0-13.24,0
			C137.34,235.86,137.34,231.54,137.34,226.9z"/>
		<path class="st0" d="M162.22,240.22c0-4.55,0-8.82,0-13.28c4.5,0,8.85,0,13.46,0c0,4.42,0,8.73,0,13.28
			C171.24,240.22,166.84,240.22,162.22,240.22z"/>
		<path class="st0" d="M187.57,226.98c4.54,0,8.96,0,13.53,0c0,4.49,0,8.75,0,13.24c-4.54,0-8.94,0-13.53,0
			C187.57,235.8,187.57,231.47,187.57,226.98z"/>
		<path class="st0" d="M226.06,240.3c-4.6,0-8.94,0-13.51,0c0-4.45,0-8.77,0-13.33c4.53,0,8.94,0,13.51,0
			C226.06,231.42,226.06,235.69,226.06,240.3z"/>
	</g>
</g>
</svg>
