<svg xmlns="http://www.w3.org/2000/svg" viewBox="0 0 397.89 328.31"><defs><style>.cls-1{opacity:0.7;}.cls-11,.cls-2,.cls-3,.cls-4,.cls-6,.cls-8{fill:none;}.cls-2,.cls-6{stroke:#c9d7ed;}.cls-10,.cls-11,.cls-17,.cls-19,.cls-2,.cls-20,.cls-21,.cls-3,.cls-4,.cls-6,.cls-7,.cls-8,.cls-9{stroke-linecap:round;stroke-linejoin:round;}.cls-2{stroke-width:2.33px;}.cls-3,.cls-4{stroke:#9fc3fd;}.cls-3{stroke-width:1.96px;}.cls-4{stroke-width:1.48px;}.cls-10,.cls-19,.cls-5,.cls-7{fill:#e5eefd;}.cls-6{stroke-width:2.49px;}.cls-17,.cls-19,.cls-20,.cls-21,.cls-7,.cls-8,.cls-9{stroke:#717791;}.cls-10,.cls-17,.cls-19,.cls-20,.cls-21,.cls-7,.cls-8,.cls-9{stroke-width:2px;}.cls-15,.cls-20,.cls-9{fill:#fff;}.cls-10{stroke:#a3acd6;}.cls-11{stroke:#a9ebc8;stroke-width:2.5px;}.cls-12{fill:#6ba6ff;}.cls-13{fill:#a9ebc8;}.cls-14{fill:#9fc3fd;}.cls-16{fill:#b8d4ff;}.cls-17{fill:#fdd1be;}.cls-18{fill:#3f72ba;opacity:0.2;}.cls-19,.cls-20{fill-rule:evenodd;}.cls-21{fill:#a3acd6;}</style></defs><title>cross-platform</title><g id="Layer_2" data-name="Layer 2"><g id="ocr"><g id="versatile_cross" data-name="versatile cross"><g class="cls-1"><line class="cls-2" x1="78.88" y1="88.66" x2="78.88" y2="97.45"/><line class="cls-2" x1="83.28" y1="93.06" x2="74.49" y2="93.06"/></g><circle class="cls-3" cx="389.89" cy="130.47" r="2.86"/><circle class="cls-3" cx="22.07" cy="216.87" r="2.86"/><circle class="cls-2" cx="311.75" cy="91.78" r="2.45"/><rect class="cls-4" x="194.97" y="66.85" width="6.6" height="6.6" transform="translate(2.69 147.48) rotate(-41.05)"/><rect class="cls-4" x="306.57" y="38.88" width="4.54" height="4.54" transform="translate(350.53 349.91) rotate(-105.28)"/><rect class="cls-5" x="189.19" y="215.26" width="190.49" height="35.08" rx="13.67" transform="translate(650.17 196.3) rotate(135)"/><rect class="cls-5" x="23.81" y="173.02" width="59.12" height="35.08" rx="13.67" transform="translate(225.85 287.58) rotate(135)"/><path class="cls-5" d="M224.89,218.9l50.22-50.22a17.54,17.54,0,0,0,24.81,24.81L249.7,243.71a17.54,17.54,0,0,0-24.81-24.81Z"/><path class="cls-5" d="M203.42,142.4l47.06-47.06a17.54,17.54,0,0,0,24.8,24.81l-47,47.06a17.54,17.54,0,0,0-24.81-24.81Z"/><rect class="cls-5" x="153.19" y="133.89" width="229.23" height="35.08" rx="13.67" transform="translate(564.25 69.15) rotate(135)"/><rect class="cls-5" x="8.03" y="146.31" width="299.35" height="35.08" rx="13.67" transform="translate(385.09 168.19) rotate(135)"/><rect class="cls-5" x="65.41" y="82.05" width="133.15" height="35.08" rx="13.67" transform="translate(295.73 76.69) rotate(135)"/><rect class="cls-5" x="194.38" y="1.81" width="35.67" height="35.08" rx="13.67" transform="translate(375.96 -117.02) rotate(135)"/><rect class="cls-5" x="141.19" y="241.49" width="35.67" height="35.08" rx="13.67" transform="translate(454.64 329.75) rotate(135)"/><circle class="cls-6" cx="120.96" cy="38.85" r="2.63"/><circle class="cls-6" cx="12.1" cy="116.19" r="2.63"/><line class="cls-7" x1="388.9" y1="310.1" x2="396.89" y2="310.1"/><line class="cls-7" x1="24.2" y1="310.1" x2="383.03" y2="310.1"/><line class="cls-7" x1="1" y1="310.1" x2="6.81" y2="310.1"/><line class="cls-7" x1="162.29" y1="327.31" x2="274.29" y2="327.31"/><line class="cls-7" x1="116.21" y1="327.31" x2="144.91" y2="327.31"/><g id="iMac"><polyline class="cls-7" points="209.89 284.67 209.89 302.29 170.64 302.29 170.64 284.94"/><path class="cls-7" d="M70.64,179.31v99.93a5.42,5.42,0,0,0,5.42,5.42H303.77a5.42,5.42,0,0,0,5.42-5.42V127.62a7.46,7.46,0,0,0-7.47-7.47H77.79a7.15,7.15,0,0,0-7.15,7.15v31.57"/><circle class="cls-8" cx="189.81" cy="124.92" r="2"/><polyline class="cls-7" points="283.41 258.55 70.64 258.55 70.64 200.4"/><line class="cls-7" x1="304.06" y1="258.55" x2="290.52" y2="258.55"/><path class="cls-8" d="M70.64,168.65V126.79a6.77,6.77,0,0,1,6.91-6.64H302.28a6.77,6.77,0,0,1,6.91,6.64V258.55"/><line class="cls-7" x1="70.64" y1="174.57" x2="70.64" y2="172.06"/><polyline class="cls-9" points="256.34 129.64 299.65 129.63 299.69 248.99 80.19 249.07 80.5 129.71 250.48 129.65"/></g><line class="cls-7" x1="177.33" y1="141.48" x2="94.07" y2="141.28"/><line class="cls-7" x1="206.08" y1="141.34" x2="193.98" y2="141.26"/><line class="cls-7" x1="284.28" y1="141.49" x2="214.7" y2="141.39"/><line class="cls-10" x1="95.86" y1="198.41" x2="177.7" y2="198.74"/><line class="cls-10" x1="95.91" y1="185.45" x2="154.64" y2="185.68"/><line class="cls-10" x1="164.42" y1="185.72" x2="177.7" y2="185.77"/><path class="cls-11" d="M94.59,156.68l11.17,16.94,9.88-6.11s8.88,4.36,8.45,4.36,10.89-15,10.89-15l6,3.49,8.31-2.79,9.17,18.15,13-17.46"/><path class="cls-12" d="M93.49,171.49l10.77-20.91a1.22,1.22,0,0,1,1.66-.53,1.19,1.19,0,0,1,.55.56l0,0,5.82,12.25-2-.33,9.52-9.89a1.26,1.26,0,0,1,1.77,0l.08.09L137.17,171l-1.64-.24,10.75-7.09a1.31,1.31,0,0,1,1.18-.11l10.75,4.52-1.6.59L163,156l0,0a1.22,1.22,0,0,1,1.64-.54,1.34,1.34,0,0,1,.39.31l13.09,15.69a.6.6,0,0,1-.08.84.59.59,0,0,1-.81-.05l-14.07-14.82,2.05-.27-6.34,12.68a1.26,1.26,0,0,1-1.61.59l-10.75-4.51,1.17-.11-10.76,7.09a1.26,1.26,0,0,1-1.64-.23l-15.51-18.27,1.85.06-9.52,9.88a1.25,1.25,0,0,1-1.77,0,1.31,1.31,0,0,1-.26-.37l-5.82-12.25,2.22.07-11.8,20.34a.66.66,0,0,1-1.16-.63Z"/><path class="cls-13" d="M102.08,239.17l-5.44,0a.55.55,0,0,1-.26,0,.17.17,0,0,1-.07-.16c-.35-5.49.47-11,.5-16.47,0-2.13-.22-4.27-.34-6.4V216l5.75,0C101.42,216,101.92,237.24,102.08,239.17Z"/><path class="cls-14" d="M111.29,239.24l-5.44,0a.64.64,0,0,1-.25,0,.09.09,0,0,1-.08-.1c-.36-3.37.22-12.73.1-14v0l5.76,0C110.57,225,111.12,238.06,111.29,239.24Z"/><path class="cls-13" d="M121.68,239.31l-5.45,0a.64.64,0,0,1-.25,0,.13.13,0,0,1-.07-.13c-.36-4.31.45-8.62.47-12.93,0-1.68-.23-3.35-.34-5v-.06l5.76,0C121,221.12,121.51,237.79,121.68,239.31Z"/><path class="cls-14" d="M132.18,239.37l-5.44,0a.55.55,0,0,1-.26,0,.16.16,0,0,1-.07-.15c-.35-5,.46-9.88.49-14.83-.05-1.92-.23-3.85-.34-5.77v-.07l5.76,0C131.51,218.51,132,237.63,132.18,239.37Z"/><rect class="cls-8" x="95.89" y="208.16" width="5.76" height="30.76" transform="translate(-0.42 0.19) rotate(-0.11)"/><rect class="cls-8" x="105.91" y="219.8" width="5.76" height="19.1" transform="translate(-0.43 0.21) rotate(-0.11)"/><rect class="cls-8" x="115.92" y="215.18" width="5.76" height="23.7" transform="translate(-0.43 0.23) rotate(-0.11)"/><rect class="cls-8" x="125.93" y="211.67" width="5.76" height="27.19" transform="translate(-0.43 0.24) rotate(-0.11)"/><path class="cls-15" d="M176,207.61c1.24,0,1.66,1,1.66,2.18l0,27.28c0,1.2-.41,2.18-1.65,2.19l-36.51.11c-1.25,0-1.66-1-1.66-2.17l0-27.29c0-1.2.41-2.18,1.66-2.18Z"/><polygon class="cls-16" points="177.66 229.33 177.59 231.6 177.53 237.57 176.86 239.22 137.83 238.95 149.3 228.19 154.16 232.44 167.85 219.82 177.66 229.33"/><polyline class="cls-8" points="137.83 236.34 147.99 226.48 152.68 231"/><polyline class="cls-8" points="148.25 235.29 150.43 233.18 165.74 218.32 177.51 229.67"/><polygon class="cls-16" points="140.82 238.94 140.82 238.95 140.81 238.95 140.82 238.94"/><circle class="cls-17" cx="151.24" cy="216.41" r="4.39"/><path class="cls-8" d="M176,207.61c1.24,0,1.66,1,1.66,2.18l0,27.28c0,1.2-.41,2.18-1.65,2.19l-36.51.11c-1.25,0-1.66-1-1.66-2.17l0-27.29c0-1.2.41-2.18,1.66-2.18Z"/><path class="cls-13" d="M285.81,176.3v11H196.88V169.69a34.54,34.54,0,0,0,3.93-.8c8-2.07,13.05-6.3,17.21-10s7.31-6.71,11.61-6.71c8.92,0,11.71,14.21,20.09,14.21,9.49,0,11.16-8.09,18.42-8.09C278.8,158.32,279.11,176.29,285.81,176.3Z"/><path class="cls-16" d="M285.81,179.53v7.74H196.88V176.4c1.3-2.6,2.61-5.15,3.93-7.5,3.95-7,8.07-12.3,12.63-12.38a5.62,5.62,0,0,1,4.58,2.39c5.08,6.25,6.07,22.57,18.68,21.7,15.62-1.07,14-14.2,23.07-14s6.88,13.3,24.74,12.95C285,179.53,285.4,179.52,285.81,179.53Z"/><line class="cls-10" x1="279.55" y1="222.76" x2="193.98" y2="223.17"/><line class="cls-10" x1="221.12" y1="238.43" x2="194.04" y2="238.56"/><line class="cls-10" x1="238.97" y1="238.35" x2="227.57" y2="238.4"/><line class="cls-10" x1="279.49" y1="206.8" x2="218.1" y2="207.09"/><line class="cls-10" x1="207.87" y1="207.14" x2="195.78" y2="207.2"/><g id="iPad"><path class="cls-18" d="M118.87,202.7h11.5a5.53,5.53,0,0,1,5.53,5.53v75.72a0,0,0,0,1,0,0h-17a0,0,0,0,1,0,0V202.7A0,0,0,0,1,118.87,202.7Z"/><g id="body"><path class="cls-19" d="M48.23,221.86v82.23a6,6,0,0,0,6,6h70.51a6,6,0,0,0,6-6v-99a6,6,0,0,0-6-6H54.2a6,6,0,0,0-6,6v12.22"/><path class="cls-20" d="M126.39,232V208.77a.7.7,0,0,0-.7-.7H53.23a.7.7,0,0,0-.71.7v87.34a.71.71,0,0,0,.71.71h72.46a.7.7,0,0,0,.7-.71v-55.7"/><line class="cls-7" x1="83.92" y1="202.69" x2="94.99" y2="202.69"/><path class="cls-19" d="M87.13,305.66a3.19,3.19,0,1,0-.74-3"/></g></g><path class="cls-13" d="M119.53,231.36V238H65.92v-10.6a20.68,20.68,0,0,0,2.37-.48,24.15,24.15,0,0,0,10.37-6c2.47-2.18,4.41-4,7-4,5.38,0,7.06,8.56,12.11,8.56,5.72,0,6.73-4.87,11.1-4.87C115.3,220.52,115.49,231.35,119.53,231.36Z"/><path class="cls-16" d="M119.53,233.3V238H65.92v-6.55c.78-1.57,1.57-3.11,2.37-4.53,2.38-4.2,4.86-7.41,7.61-7.46a3.39,3.39,0,0,1,2.76,1.44c3.07,3.77,3.66,13.61,11.26,13.09,9.42-.65,8.41-8.57,13.91-8.46s4.15,8,14.91,7.81Z"/><polygon class="cls-7" points="363.81 233.58 304.95 178.44 311.21 171.78 370.07 226.92 363.81 233.58"/><polygon class="cls-7" points="313.75 297.01 361.63 221.97 369.37 226.85 321.48 301.89 313.75 297.01"/><circle class="cls-7" cx="363.24" cy="226.77" r="10.72"/><circle class="cls-9" cx="363.24" cy="226.77" r="4.88"/><path class="cls-7" d="M303.56,187l-22.32-20.51,21-16.09A10.71,10.71,0,0,1,316,151h0a10.71,10.71,0,0,1,1.78,13.66Z"/><path class="cls-9" d="M294.34,197.94l-23.27-21.38a16.84,16.84,0,0,0,23.27,21.38Z"/><path class="cls-7" d="M306.24,210.13l-48.32-44.4a35,35,0,0,1,48.32,44.4Z"/><path class="cls-9" d="M359.72,309.09H284.64C295,298,308,291.46,322.18,291.46S349.38,298,359.72,309.09Z"/><g id="Cup"><rect class="cls-18" x="235.94" y="266.42" width="14.5" height="17.36"/><rect class="cls-18" x="271.54" y="266.42" width="14.5" height="17.36"/><path class="cls-5" d="M279.92,274.64a19.51,19.51,0,0,1,5.06-.12,6.58,6.58,0,0,1,4.34,2.37c1.29,1.73,1.28,4.07,1.22,6.23l-.24,8.41a10.48,10.48,0,0,1-1,4.94,6.62,6.62,0,0,1-3.37,2.72,13.77,13.77,0,0,1-4.32.81,2.86,2.86,0,0,1-2-.38,2,2,0,0,1-.28-2.57,5.26,5.26,0,0,1,2.15-1.77,7.88,7.88,0,0,0,2.3-1.59c1-1.2,1.11-2.91,1.15-4.49l.11-4.82a4,4,0,0,0-.8-3.07,4.84,4.84,0,0,0-2.85-.82c-1-.12-2.15-.54-2.4-1.52a2.84,2.84,0,0,1,.28-1.7l1.23-3.23"/><path class="cls-7" d="M283.12,293.85h1.26a.57.57,0,0,0,.56-.58V282.12"/><path class="cls-8" d="M283.42,274.6h1a6.09,6.09,0,0,1,5.92,6.25v12.42a6.1,6.1,0,0,1-5.92,6.25h-.59"/><path class="cls-9" d="M240.15,265.29h42a0,0,0,0,1,0,0V305.7a4.3,4.3,0,0,1-4.3,4.3H244.45a4.3,4.3,0,0,1-4.3-4.3V265.29A0,0,0,0,1,240.15,265.29Z"/></g><path class="cls-16" d="M82.21,283.14a8.48,8.48,0,0,1-8.61,8.32A8.67,8.67,0,0,1,66,287l7.28-3.83h0l.09-8.37h.25A8.47,8.47,0,0,1,82.21,283.14Z"/><path class="cls-13" d="M73.35,274.82A8.64,8.64,0,0,0,66,279.25h0a8,8,0,0,0-1,3.89v.05A8,8,0,0,0,66,287l7.27-3.83h0Z"/><line class="cls-10" x1="86.14" y1="247.94" x2="115.56" y2="248.06"/><line class="cls-10" x1="66.76" y1="247.86" x2="79.14" y2="247.91"/><line class="cls-10" x1="109.84" y1="256.87" x2="115.53" y2="256.89"/><line class="cls-10" x1="66.73" y1="256.69" x2="101.74" y2="256.83"/><line class="cls-10" x1="98.37" y1="279.3" x2="115.46" y2="279.37"/><line class="cls-10" x1="87.12" y1="279.26" x2="94.31" y2="279.29"/><line class="cls-10" x1="87.08" y1="288.09" x2="107.42" y2="288.17"/><line class="cls-10" x1="66.69" y1="265.52" x2="97.82" y2="265.65"/><g id="iPhone"><path class="cls-18" d="M46.84,230.34H59A4.69,4.69,0,0,1,63.65,235V310.1a0,0,0,0,1,0,0H46.84a0,0,0,0,1,0,0V230.34A0,0,0,0,1,46.84,230.34Z"/><g id="body-2" data-name="body"><path class="cls-19" d="M58.47,275.48V231.85a4.27,4.27,0,0,0-4.27-4.27H20a4.27,4.27,0,0,0-4.27,4.27v74A4.27,4.27,0,0,0,20,310.1H54.2a4.27,4.27,0,0,0,4.27-4.27V281.07"/><path class="cls-20" d="M20.37,264.08v31.37a1.38,1.38,0,0,0,1.38,1.38h30.7a1.38,1.38,0,0,0,1.39-1.38V237.62a1.38,1.38,0,0,0-1.39-1.38H21.75a1.38,1.38,0,0,0-1.38,1.38V246"/><line class="cls-7" x1="20.37" y1="252.25" x2="20.37" y2="258.54"/><line class="cls-7" x1="31.95" y1="231.5" x2="40.03" y2="231.5"/><path class="cls-19" d="M34.42,304.88a3,3,0,0,0,2.68,1.56,3.08,3.08,0,1,0-2.91-4.07"/></g></g><path class="cls-13" d="M49.81,250.11v3h-24v-4.74a8.64,8.64,0,0,0,1.06-.21,10.82,10.82,0,0,0,4.63-2.69c1.1-1,2-1.81,3.13-1.81,2.4,0,3.15,3.83,5.41,3.83,2.55,0,3-2.18,5-2.18C47.92,245.27,48,250.11,49.81,250.11Z"/><path class="cls-16" d="M49.81,251v2.09h-24v-2.93c.34-.7.7-1.38,1.06-2,1.06-1.88,2.17-3.31,3.4-3.33a1.52,1.52,0,0,1,1.23.64c1.37,1.68,1.64,6.08,5,5.85,4.21-.29,3.76-3.83,6.22-3.78s1.85,3.58,6.66,3.49Z"/><line class="cls-10" x1="38.08" y1="262.19" x2="49.27" y2="262.24"/><line class="cls-10" x1="26.85" y1="262.15" x2="32.54" y2="262.17"/><line class="cls-10" x1="26.83" y1="268.11" x2="42.92" y2="268.17"/><line class="cls-10" x1="38.08" y1="273.94" x2="49.27" y2="274"/><line class="cls-10" x1="26.85" y1="273.91" x2="32.54" y2="273.93"/><path class="cls-16" d="M30.74,280.4h-.13a4.4,4.4,0,0,0-3.74,2.26,4,4,0,0,0-.51,2v0a4,4,0,0,0,.51,1.95,4.45,4.45,0,0,0,7.85-.2,4.06,4.06,0,0,0,.4-1.77A4.31,4.31,0,0,0,30.74,280.4Zm0,6.76a2.62,2.62,0,0,1-2.31-1.34,2.45,2.45,0,0,1-.3-1.17h0a2.42,2.42,0,0,1,.3-1.19,2.62,2.62,0,0,1,2.23-1.34h.08a2.58,2.58,0,0,1,2.62,2.53,2.47,2.47,0,0,1-.19.94A2.62,2.62,0,0,1,30.74,287.16Z"/><path class="cls-13" d="M34.72,286.41a4.45,4.45,0,0,1-7.85.2,4,4,0,0,1-.51-1.95v0a4,4,0,0,1,.51-2,4.4,4.4,0,0,1,3.74-2.26h.1v1.71h-.05a2.62,2.62,0,0,0-2.23,1.34,2.42,2.42,0,0,0-.3,1.19h0a2.45,2.45,0,0,0,.3,1.17,2.66,2.66,0,0,0,4.74-.24Z"/><path class="cls-16" d="M43.19,280.4h-.13a4.41,4.41,0,0,0-3.74,2.26,4,4,0,0,0-.51,2v0a4.13,4.13,0,0,0,.51,1.95,4.45,4.45,0,0,0,7.85-.2,4.06,4.06,0,0,0,.4-1.77A4.31,4.31,0,0,0,43.19,280.4Zm0,6.76a2.62,2.62,0,0,1-2.31-1.34,2.45,2.45,0,0,1-.3-1.17h0a2.53,2.53,0,0,1,.3-1.19,2.62,2.62,0,0,1,2.23-1.34h.08a2.57,2.57,0,0,1,2.62,2.53,2.47,2.47,0,0,1-.19.94A2.62,2.62,0,0,1,43.19,287.16Z"/><path class="cls-13" d="M43.16,280.44v1.71h0a2.6,2.6,0,0,0-2.24,1.34,2.52,2.52,0,0,0-.3,1.18v0a2.45,2.45,0,0,0,.3,1.17,2.57,2.57,0,0,0,.55.68l-1.18,1.27a4.17,4.17,0,0,1-.93-1.16,4.13,4.13,0,0,1-.51-1.95v0a4.05,4.05,0,0,1,.51-2,4.42,4.42,0,0,1,3.74-2.25Z"/><g class="cls-1"><line class="cls-2" x1="273.58" y1="30.91" x2="273.58" y2="43.06"/><line class="cls-2" x1="279.65" y1="36.99" x2="267.5" y2="36.99"/></g><g class="cls-1"><line class="cls-2" x1="377.51" y1="181.93" x2="377.51" y2="194.08"/><line class="cls-2" x1="383.58" y1="188" x2="371.43" y2="188"/></g><polygon class="cls-21" points="221.37 310.1 159.16 310.1 170.64 302.29 209.89 302.29 221.37 310.1"/><path class="cls-18" d="M220.73,56.09l.05,47.22a2.66,2.66,0,0,1-2.66,2.65H169.89a2.66,2.66,0,0,1-2.66-2.65V45.12a2.66,2.66,0,0,1,2.66-2.66h37.33"/><path class="cls-15" d="M216.34,52.47l0,47.22a2.65,2.65,0,0,1-2.65,2.65H165.5a2.65,2.65,0,0,1-2.65-2.65V41.5a2.65,2.65,0,0,1,2.65-2.65h37.34"/><line class="cls-7" x1="203.21" y1="38.85" x2="216.71" y2="52.27"/><path class="cls-8" d="M216.71,52.47l0,47.22a2.64,2.64,0,0,1-2.65,2.65H165.87a2.65,2.65,0,0,1-2.65-2.65V41.5a2.65,2.65,0,0,1,2.65-2.65h29.86"/><polyline class="cls-8" points="203.21 38.85 203.21 52.27 210.48 52.27"/><line class="cls-10" x1="169.13" y1="73.01" x2="210.85" y2="73.01"/><line class="cls-10" x1="185.7" y1="80.45" x2="210.85" y2="80.45"/><line class="cls-10" x1="169.13" y1="80.45" x2="179.72" y2="80.45"/><line class="cls-10" x1="205.99" y1="87.9" x2="210.85" y2="87.9"/><line class="cls-10" x1="169.13" y1="87.9" x2="199.07" y2="87.9"/><line class="cls-10" x1="169.13" y1="95.34" x2="195.74" y2="95.34"/><path class="cls-15" d="M195.13,44.66c.84,0,1.13.67,1.13,1.49l0,18.58c0,.82-.28,1.49-1.13,1.49l-24.87.08c-.85,0-1.13-.66-1.13-1.48l0-18.59c0-.82.28-1.48,1.13-1.49Z"/><polygon class="cls-16" points="196.26 59.46 196.21 61.01 196.17 65.07 195.71 66.19 169.13 66.01 176.94 58.68 180.25 61.58 189.58 52.98 196.26 59.46"/><polyline class="cls-8" points="169.13 64.23 176.05 57.52 179.24 60.6"/><polyline class="cls-8" points="176.22 63.52 177.71 62.08 188.14 51.96 196.16 59.69"/><polygon class="cls-16" points="171.16 66 171.16 66.01 171.16 66.01 171.16 66"/><circle class="cls-17" cx="178.26" cy="50.66" r="2.99"/><path class="cls-8" d="M195.13,44.66c.84,0,1.13.67,1.13,1.49l0,18.58c0,.82-.28,1.49-1.13,1.49l-24.87.08c-.85,0-1.13-.66-1.13-1.48l0-18.59c0-.82.28-1.48,1.13-1.49Z"/></g></g></g></svg>