<svg xmlns="http://www.w3.org/2000/svg" viewBox="0 0 443 361"><defs><style>.cls-1,.cls-21{fill:#fff;}.cls-10,.cls-18,.cls-2{fill:#e5eefd;}.cls-3{opacity:0.7;}.cls-14,.cls-15,.cls-16,.cls-19,.cls-4,.cls-5,.cls-6,.cls-7,.cls-8,.cls-9{fill:none;}.cls-4{stroke:#fdd1be;}.cls-10,.cls-14,.cls-15,.cls-16,.cls-18,.cls-19,.cls-21,.cls-24,.cls-27,.cls-4,.cls-5,.cls-6,.cls-7,.cls-8,.cls-9{stroke-linecap:round;stroke-linejoin:round;}.cls-10,.cls-14,.cls-15,.cls-16,.cls-18,.cls-24,.cls-25,.cls-27,.cls-4,.cls-5,.cls-6,.cls-7,.cls-8,.cls-9{stroke-width:2px;}.cls-5{stroke:#c9d7ed;}.cls-6{stroke:#fd8989;}.cls-7{stroke:#9fc3fd;}.cls-8{stroke:#d5befd;}.cls-9{stroke:#fedfd2;}.cls-10,.cls-14,.cls-15,.cls-16,.cls-24,.cls-27{stroke:#717791;}.cls-11{fill:#a3acd6;}.cls-12{fill:#b8d4ff;}.cls-13{fill:#a0c0f1;}.cls-15{stroke-dasharray:12.67 10 30 10 10 662.68;}.cls-15,.cls-16{opacity:0.5;}.cls-16{stroke-dasharray:30 10 30 10 10 662.68;}.cls-17{fill:#93b9f4;}.cls-18{stroke:#a3acd6;}.cls-19{stroke:#a9ebc8;}.cls-19,.cls-21{stroke-width:2.5px;}.cls-20{fill:#6ba6ff;}.cls-21{stroke:#fff;}.cls-22,.cls-27{fill:#a9ebc8;}.cls-23{fill:#9fc3fd;}.cls-24,.cls-26{fill:#fdd1be;}.cls-25{fill:#3f72ba;stroke:#3f72ba;stroke-miterlimit:10;opacity:0.2;}</style></defs><g id="Layer_2" data-name="Layer 2"><g id="ocr"><g id="conversion"><rect class="cls-1" width="443" height="361"/><rect class="cls-2" x="205.26" y="237.72" width="173.75" height="32" rx="13.67" transform="translate(678.12 226.55) rotate(135)"/><rect class="cls-2" x="54.41" y="199.19" width="53.92" height="32" rx="13.67" transform="translate(291.08 309.82) rotate(135)"/><path class="cls-2" d="M237.83,241l45.81-45.81a16,16,0,0,0,22.63,22.63l-45.81,45.81A16,16,0,0,0,237.83,241Z"/><path class="cls-2" d="M218.25,171.25l42.92-42.92A16,16,0,0,0,283.8,151l-42.92,42.92a16,16,0,0,0-22.63-22.63Z"/><rect class="cls-2" x="172.43" y="163.49" width="209.1" height="32" rx="13.67" transform="translate(599.75 110.57) rotate(135)"/><rect class="cls-2" x="40.02" y="174.82" width="273.05" height="32" rx="13.67" transform="translate(436.33 200.92) rotate(135)"/><rect class="cls-2" x="92.36" y="116.21" width="121.46" height="32" rx="13.67" transform="translate(354.82 117.45) rotate(135)"/><rect class="cls-2" x="210" y="43.02" width="32.54" height="32" rx="13.67" transform="translate(428 -59.25) rotate(135)"/><rect class="cls-2" x="161.49" y="261.64" width="32.54" height="32" rx="13.67" transform="translate(499.77 348.28) rotate(135)"/><g class="cls-3"><line class="cls-4" x1="302.69" y1="132.08" x2="295.62" y2="136.31"/><line class="cls-4" x1="301.27" y1="137.73" x2="297.04" y2="130.66"/></g><circle class="cls-5" cx="293.2" cy="51.52" r="2.75"/><circle class="cls-6" cx="342.41" cy="106.66" r="3.09"/><circle class="cls-6" cx="284.41" cy="244.12" r="3.09"/><g class="cls-3"><line class="cls-4" x1="154.8" y1="73.11" x2="154.8" y2="87.55"/><line class="cls-4" x1="162.02" y1="80.33" x2="147.58" y2="80.33"/></g><rect class="cls-7" x="134.47" y="23.81" width="7.46" height="7.46" transform="translate(148.05 168.11) rotate(-105.28)"/><circle class="cls-8" cx="177.36" cy="209.01" r="4.69"/><path class="cls-6" d="M302.48,214.76c3.89,1,6.73-1.81,5.7-5.7l-.39-1.49c-1-3.89,1.81-6.73,5.7-5.7l1.49.4c3.89,1,6.73-1.82,5.7-5.7l-.39-1.5c-1-3.89,1.81-6.73,5.69-5.7l1.51.4c2.93.77,5.27-.66,5.8-3.09"/><path class="cls-6" d="M226.54,49.54c2.87.76,5-1.34,4.2-4.2l-.29-1.1c-.76-2.87,1.34-5,4.2-4.21l1.1.3c2.87.76,5-1.34,4.21-4.21l-.3-1.1c-.76-2.87,1.34-5,4.21-4.2l1.1.29c2.17.57,3.89-.48,4.28-2.27"/><path class="cls-8" d="M62.27,146.65c-.61,4,2.52,6.5,6.28,5.06l1.44-.56c3.75-1.44,6.88,1.09,6.27,5.06L76,157.74c-.61,4,2.52,6.5,6.27,5.06l1.45-.56c3.76-1.43,6.89,1.09,6.28,5.06l-.24,1.54c-.46,3,1.22,5.18,3.69,5.44"/><path class="cls-7" d="M307.17,90a2.7,2.7,0,0,0-2.93,4l.37.87a2.7,2.7,0,0,1-2.93,4l-.94-.1a2.7,2.7,0,0,0-2.93,4l.38.87a2.71,2.71,0,0,1-2.93,4l-.95-.11a2.67,2.67,0,0,0-3.23,2.4"/><path class="cls-9" d="M193.59,134c-2.84-.31-4.54,2-3.4,4.61l.43,1c1.14,2.62-.56,4.92-3.4,4.61l-1.09-.12a3.15,3.15,0,0,0-3.41,4.61l.44,1c1.14,2.62-.56,4.92-3.4,4.61l-1.1-.12c-2.15-.24-3.64,1-3.75,2.78"/><g class="cls-3"><line class="cls-4" x1="146.62" y1="279.82" x2="143.1" y2="273.96"/><line class="cls-4" x1="141.93" y1="278.65" x2="147.79" y2="275.14"/></g><circle class="cls-5" cx="213.5" cy="271.95" r="2.28"/><circle class="cls-6" cx="167.72" cy="312.8" r="2.56"/><circle class="cls-6" cx="53.6" cy="264.65" r="2.56"/><g class="cls-3"><line class="cls-4" x1="195.58" y1="157.05" x2="183.59" y2="157.05"/><line class="cls-4" x1="189.58" y1="163.04" x2="189.58" y2="151.06"/></g><rect class="cls-7" x="230.32" y="140.17" width="6.19" height="6.19" transform="translate(-29.5 66.57) rotate(-15.28)"/><circle class="cls-8" cx="82.75" cy="175.78" r="3.9"/><path class="cls-6" d="M78,279.66c-.86,3.22,1.5,5.59,4.73,4.73l1.24-.33c3.22-.85,5.58,1.51,4.73,4.73L88.35,290c-.85,3.23,1.51,5.59,4.73,4.74l1.25-.33c3.22-.86,5.58,1.5,4.73,4.73l-.33,1.24c-.65,2.44.54,4.39,2.56,4.82"/><path class="cls-6" d="M215.14,216.61a2.71,2.71,0,0,0,3.49,3.49l.92-.25a2.71,2.71,0,0,1,3.49,3.49l-.25.92a2.71,2.71,0,0,0,3.49,3.49l.92-.25a2.71,2.71,0,0,1,3.49,3.49l-.25.92a2.68,2.68,0,0,0,1.89,3.55"/><path class="cls-8" d="M134.52,80.23c-3.3-.51-5.39,2.09-4.19,5.21l.45,1.2c1.2,3.11-.9,5.71-4.19,5.21l-1.28-.2c-3.29-.5-5.39,2.1-4.19,5.21l.46,1.21c1.19,3.11-.9,5.71-4.2,5.2l-1.28-.19c-2.49-.38-4.3,1-4.51,3.06"/><path class="cls-7" d="M181.53,283.55a2.25,2.25,0,0,0-3.3-2.44l-.72.32a2.25,2.25,0,0,1-3.3-2.44l.09-.78a2.25,2.25,0,0,0-3.3-2.43l-.72.31a2.25,2.25,0,0,1-3.3-2.43l.08-.79a2.22,2.22,0,0,0-2-2.68"/><path class="cls-9" d="M145,189.25a2.6,2.6,0,0,0-3.83-2.82l-.83.36a2.61,2.61,0,0,1-3.83-2.82l.1-.91a2.61,2.61,0,0,0-3.83-2.83l-.84.37a2.61,2.61,0,0,1-3.83-2.83l.1-.91a2.58,2.58,0,0,0-2.31-3.12"/><line class="cls-10" x1="375.67" y1="310.77" x2="382.06" y2="310.77"/><line class="cls-10" x1="261.4" y1="310.77" x2="370.97" y2="310.77"/><line class="cls-10" x1="234.25" y1="310.77" x2="249.29" y2="310.77"/><line class="cls-10" x1="84.01" y1="310.77" x2="205.84" y2="310.77"/><line class="cls-10" x1="76.95" y1="310.77" x2="77.89" y2="310.77"/><line class="cls-10" x1="65.46" y1="310.77" x2="70.11" y2="310.77"/><line class="cls-10" x1="193.31" y1="338.04" x2="282.87" y2="338.04"/><line class="cls-10" x1="156.46" y1="338.04" x2="179.41" y2="338.04"/><path class="cls-11" d="M242.89,144.09h-5.62a3.37,3.37,0,0,1-3.2-2.23,25.48,25.48,0,0,0-1.18-2.85,3.38,3.38,0,0,1,.68-3.84l4-4a3.4,3.4,0,0,0,0-4.81l-4.23-4.23a3.4,3.4,0,0,0-4.81,0l-4,4a3.36,3.36,0,0,1-3.84.67,26.45,26.45,0,0,0-2.86-1.18,3.38,3.38,0,0,1-2.23-3.19v-5.62a3.4,3.4,0,0,0-3.4-3.4h-6a3.4,3.4,0,0,0-3.4,3.4v5.62a3.38,3.38,0,0,1-2.23,3.19,26.45,26.45,0,0,0-2.86,1.18,3.36,3.36,0,0,1-3.84-.67l-4-4a3.4,3.4,0,0,0-4.81,0l-4.23,4.23a3.4,3.4,0,0,0,0,4.81l4,4a3.38,3.38,0,0,1,.68,3.84,23.72,23.72,0,0,0-1.18,2.85,3.37,3.37,0,0,1-3.2,2.23h-5.62a3.4,3.4,0,0,0-3.4,3.4v6a3.41,3.41,0,0,0,3.4,3.41h5.62a3.37,3.37,0,0,1,3.2,2.23,23.72,23.72,0,0,0,1.18,2.85,3.38,3.38,0,0,1-.68,3.84l-4,4a3.4,3.4,0,0,0,0,4.81l4.23,4.23a3.4,3.4,0,0,0,4.81,0l4-4a3.36,3.36,0,0,1,3.84-.67,28.63,28.63,0,0,0,2.86,1.18,3.36,3.36,0,0,1,2.23,3.19v5.62a3.4,3.4,0,0,0,3.4,3.4h6a3.4,3.4,0,0,0,3.4-3.4v-5.62a3.36,3.36,0,0,1,2.23-3.19,28.63,28.63,0,0,0,2.86-1.18,3.36,3.36,0,0,1,3.84.67l4,4a3.4,3.4,0,0,0,4.81,0l4.23-4.23a3.4,3.4,0,0,0,0-4.81l-4-4a3.38,3.38,0,0,1-.68-3.84,25.48,25.48,0,0,0,1.18-2.85,3.37,3.37,0,0,1,3.2-2.23h5.62a3.41,3.41,0,0,0,3.4-3.41v-6A3.4,3.4,0,0,0,242.89,144.09Zm-33.68,19.55a13.16,13.16,0,1,1,13.16-13.16A13.16,13.16,0,0,1,209.21,163.64Z"/><path class="cls-12" d="M272.71,196.38h-3.18a1.91,1.91,0,0,1-1.81-1.26,15.26,15.26,0,0,0-.66-1.62,1.89,1.89,0,0,1,.38-2.17l2.25-2.25a1.93,1.93,0,0,0,0-2.72l-2.4-2.39a1.93,1.93,0,0,0-2.72,0l-2.25,2.25a1.91,1.91,0,0,1-2.17.38,15.16,15.16,0,0,0-1.61-.67,1.9,1.9,0,0,1-1.26-1.8V181a1.94,1.94,0,0,0-1.93-1.93H252A1.94,1.94,0,0,0,250,181v3.18a1.89,1.89,0,0,1-1.26,1.8,15.16,15.16,0,0,0-1.61.67,1.91,1.91,0,0,1-2.17-.38L242.75,184a1.93,1.93,0,0,0-2.72,0l-2.39,2.39a1.91,1.91,0,0,0,0,2.72l2.24,2.25a1.9,1.9,0,0,1,.39,2.17,13.47,13.47,0,0,0-.67,1.62,1.91,1.91,0,0,1-1.81,1.26h-3.18a1.92,1.92,0,0,0-1.92,1.92v3.39a1.92,1.92,0,0,0,1.92,1.92h3.18a1.91,1.91,0,0,1,1.81,1.26,13.47,13.47,0,0,0,.67,1.62,1.9,1.9,0,0,1-.39,2.17l-2.24,2.25a1.91,1.91,0,0,0,0,2.72L240,216a1.93,1.93,0,0,0,2.72,0l2.25-2.25a1.91,1.91,0,0,1,2.17-.38,15.16,15.16,0,0,0,1.61.67,1.89,1.89,0,0,1,1.26,1.8V219A1.93,1.93,0,0,0,252,221h3.38a1.93,1.93,0,0,0,1.93-1.93v-3.18a1.9,1.9,0,0,1,1.26-1.8,15.16,15.16,0,0,0,1.61-.67,1.91,1.91,0,0,1,2.17.38l2.25,2.25a1.93,1.93,0,0,0,2.72,0l2.4-2.39a1.93,1.93,0,0,0,0-2.72l-2.25-2.25a1.89,1.89,0,0,1-.38-2.17,15.26,15.26,0,0,0,.66-1.62,1.91,1.91,0,0,1,1.81-1.26h3.18a1.92,1.92,0,0,0,1.92-1.92V198.3A1.92,1.92,0,0,0,272.71,196.38Zm-19,11.06A7.45,7.45,0,1,1,261.1,200,7.44,7.44,0,0,1,253.66,207.44Z"/><path class="cls-13" d="M223.59,212.73h-4.17a2.51,2.51,0,0,1-2.37-1.66,17.86,17.86,0,0,0-.88-2.12,2.49,2.49,0,0,1,.51-2.85l2.94-2.95a2.52,2.52,0,0,0,0-3.57l-3.13-3.14a2.53,2.53,0,0,0-3.57,0L210,199.39a2.49,2.49,0,0,1-2.85.5A19.64,19.64,0,0,0,205,199a2.51,2.51,0,0,1-1.66-2.37v-4.17a2.52,2.52,0,0,0-2.52-2.53h-4.44a2.52,2.52,0,0,0-2.52,2.53v4.17A2.51,2.51,0,0,1,192.2,199a19.64,19.64,0,0,0-2.12.87,2.49,2.49,0,0,1-2.85-.5l-2.95-2.95a2.53,2.53,0,0,0-3.57,0l-3.14,3.14a2.53,2.53,0,0,0,0,3.57l3,2.95A2.49,2.49,0,0,1,181,209a19.64,19.64,0,0,0-.87,2.12,2.51,2.51,0,0,1-2.37,1.66h-4.17a2.52,2.52,0,0,0-2.53,2.52v4.44a2.52,2.52,0,0,0,2.53,2.52h4.17a2.51,2.51,0,0,1,2.37,1.66A19.64,19.64,0,0,0,181,226a2.49,2.49,0,0,1-.5,2.85l-3,2.95a2.53,2.53,0,0,0,0,3.57l3.14,3.14a2.53,2.53,0,0,0,3.57,0l2.95-2.95a2.51,2.51,0,0,1,2.85-.51,17.86,17.86,0,0,0,2.12.88,2.51,2.51,0,0,1,1.66,2.37v4.17a2.52,2.52,0,0,0,2.52,2.52h4.44a2.52,2.52,0,0,0,2.52-2.52v-4.17a2.51,2.51,0,0,1,1.66-2.37,17.86,17.86,0,0,0,2.12-.88,2.51,2.51,0,0,1,2.85.51l2.95,2.95a2.53,2.53,0,0,0,3.57,0l3.13-3.14a2.52,2.52,0,0,0,0-3.57l-2.94-2.95a2.49,2.49,0,0,1-.51-2.85,17.86,17.86,0,0,0,.88-2.12,2.51,2.51,0,0,1,2.37-1.66h4.17a2.52,2.52,0,0,0,2.52-2.52v-4.44A2.52,2.52,0,0,0,223.59,212.73Zm-25,14.5a9.76,9.76,0,1,1,9.76-9.76A9.76,9.76,0,0,1,198.6,227.23Z"/><path class="cls-14" d="M202.59,173.35a3.36,3.36,0,0,1,2.23,3.19v5.62a3.4,3.4,0,0,0,3.4,3.4h6a3.4,3.4,0,0,0,3.4-3.4v-5.62a3.36,3.36,0,0,1,2.23-3.19,28.63,28.63,0,0,0,2.86-1.18,3.36,3.36,0,0,1,3.84.67l4,4a3.4,3.4,0,0,0,4.81,0l4.23-4.23a3.4,3.4,0,0,0,0-4.81l-4-4a3.38,3.38,0,0,1-.68-3.84,25.48,25.48,0,0,0,1.18-2.85,3.37,3.37,0,0,1,3.2-2.23h5.62a3.41,3.41,0,0,0,3.4-3.41v-6a3.4,3.4,0,0,0-3.4-3.4h-5.62a3.37,3.37,0,0,1-3.2-2.23,25.48,25.48,0,0,0-1.18-2.85,3.38,3.38,0,0,1,.68-3.84l4-4a3.4,3.4,0,0,0,0-4.81l-4.23-4.23m-4.81,0-4,4a3.36,3.36,0,0,1-3.84.67,26.45,26.45,0,0,0-2.86-1.18,3.38,3.38,0,0,1-2.23-3.19v-5.62a3.4,3.4,0,0,0-3.4-3.4h-6a3.4,3.4,0,0,0-3.4,3.4v5.62a3.38,3.38,0,0,1-2.23,3.19,26.45,26.45,0,0,0-2.86,1.18,3.36,3.36,0,0,1-3.84-.67l-4-4a3.4,3.4,0,0,0-4.81,0l-4.23,4.23a3.4,3.4,0,0,0,0,4.81l4,4a3.38,3.38,0,0,1,.68,3.84,23.72,23.72,0,0,0-1.18,2.85,3.37,3.37,0,0,1-3.2,2.23h-5.62a3.4,3.4,0,0,0-3.4,3.4v6a3.41,3.41,0,0,0,3.4,3.41h5.62a3.37,3.37,0,0,1,3.2,2.23,23.72,23.72,0,0,0,1.18,2.85,3.38,3.38,0,0,1-.68,3.84l-4,4a3.4,3.4,0,0,0,0,4.81l4.23,4.23a3.4,3.4,0,0,0,4.81,0l4-4m15.32-11.2a13.16,13.16,0,1,1,13.16-13.16A13.16,13.16,0,0,1,211.21,161.64Z"/><path class="cls-14" d="M260.32,212.77l2.25,2.25a1.93,1.93,0,0,0,2.72,0l2.4-2.39a1.93,1.93,0,0,0,0-2.72l-2.25-2.25a1.89,1.89,0,0,1-.38-2.17,15.26,15.26,0,0,0,.66-1.62,1.91,1.91,0,0,1,1.81-1.26h3.18a1.92,1.92,0,0,0,1.92-1.92V197.3a1.92,1.92,0,0,0-1.92-1.92h-3.18a1.91,1.91,0,0,1-1.81-1.26,15.26,15.26,0,0,0-.66-1.62,1.89,1.89,0,0,1,.38-2.17l2.25-2.25a1.93,1.93,0,0,0,0-2.72l-2.4-2.39a1.93,1.93,0,0,0-2.72,0l-2.25,2.25a1.91,1.91,0,0,1-2.17.38,15.16,15.16,0,0,0-1.61-.67,1.9,1.9,0,0,1-1.26-1.8V180M250,178A1.94,1.94,0,0,0,248,180v3.18a1.89,1.89,0,0,1-1.26,1.8,15.16,15.16,0,0,0-1.61.67,1.91,1.91,0,0,1-2.17-.38L240.75,183a1.93,1.93,0,0,0-2.72,0l-2.39,2.39a1.91,1.91,0,0,0,0,2.72l2.24,2.25a1.9,1.9,0,0,1,.39,2.17,13.47,13.47,0,0,0-.67,1.62,1.91,1.91,0,0,1-1.81,1.26h-3.18a1.92,1.92,0,0,0-1.92,1.92v3.39a1.92,1.92,0,0,0,1.92,1.92h3.18a1.91,1.91,0,0,1,1.81,1.26,13.47,13.47,0,0,0,.67,1.62,1.9,1.9,0,0,1-.39,2.17l-2.24,2.25a1.91,1.91,0,0,0,0,2.72L238,215a1.93,1.93,0,0,0,2.72,0l2.25-2.25a1.91,1.91,0,0,1,2.17-.38,15.16,15.16,0,0,0,1.61.67,1.89,1.89,0,0,1,1.26,1.8V218A1.93,1.93,0,0,0,250,220h3.38a1.93,1.93,0,0,0,1.93-1.93v-3.18a1.9,1.9,0,0,1,1.26-1.8m-4.88-6.62A7.45,7.45,0,1,1,259.1,199,7.44,7.44,0,0,1,251.66,206.44Z"/><path class="cls-14" d="M205.34,197.65v-4.17a2.52,2.52,0,0,0-2.52-2.53h-4.44a2.52,2.52,0,0,0-2.52,2.53v4.17A2.51,2.51,0,0,1,194.2,200a19.64,19.64,0,0,0-2.12.87,2.49,2.49,0,0,1-2.85-.5l-2.95-2.95a2.53,2.53,0,0,0-3.57,0l-3.14,3.14a2.53,2.53,0,0,0,0,3.57l3,2.95A2.49,2.49,0,0,1,183,210a19.64,19.64,0,0,0-.87,2.12,2.51,2.51,0,0,1-2.37,1.66h-4.17a2.52,2.52,0,0,0-2.53,2.52v4.44a2.52,2.52,0,0,0,2.53,2.52h4.17a2.51,2.51,0,0,1,2.37,1.66A19.64,19.64,0,0,0,183,227a2.49,2.49,0,0,1-.5,2.85l-3,2.95m0,3.57,3.14,3.14a2.53,2.53,0,0,0,3.57,0l2.95-2.95a2.51,2.51,0,0,1,2.85-.51,17.86,17.86,0,0,0,2.12.88,2.51,2.51,0,0,1,1.66,2.37v4.17a2.52,2.52,0,0,0,2.52,2.52h4.44a2.52,2.52,0,0,0,2.52-2.52v-4.17a2.51,2.51,0,0,1,1.66-2.37,17.86,17.86,0,0,0,2.12-.88,2.51,2.51,0,0,1,2.85.51l2.95,2.95a2.53,2.53,0,0,0,3.57,0l3.13-3.14a2.52,2.52,0,0,0,0-3.57l-2.94-2.95a2.49,2.49,0,0,1-.51-2.85,17.86,17.86,0,0,0,.88-2.12,2.51,2.51,0,0,1,2.37-1.66h4.17a2.52,2.52,0,0,0,2.52-2.52v-4.44a2.52,2.52,0,0,0-2.52-2.52h-4.17a2.51,2.51,0,0,1-2.37-1.66,17.86,17.86,0,0,0-.88-2.12,2.49,2.49,0,0,1,.51-2.85l2.94-2.95a2.52,2.52,0,0,0,0-3.57l-3.13-3.14a2.53,2.53,0,0,0-3.57,0L212,200.39a2.49,2.49,0,0,1-2.85.5m-8.52,27.34a9.76,9.76,0,1,1,9.76-9.76A9.76,9.76,0,0,1,200.6,228.23Z"/><path class="cls-15" d="M199.6,103.38a37.71,37.71,0,0,0-37.74,37.73s-.15,11.61,4.3,18.16"/><path class="cls-16" d="M277.38,210.14A21.73,21.73,0,0,0,280,207a21,21,0,0,0-2.59-26.58s-4.51-4.64-8.84-5.46"/><path class="cls-15" d="M167.48,234.48a20,20,0,0,0,.41,4c2,9.67,11.15,17,22.1,17,0,0,6.92.09,10.83-2.39"/><path class="cls-17" d="M135.31,202c-.05.71-.09,1.43-.12,2.15"/><path class="cls-1" d="M144.93,133.8l-.3,122.5a5.7,5.7,0,0,1-5.72,5.68l-103.58-.42a5.7,5.7,0,0,1-5.67-5.72l.5-143.42a5.71,5.71,0,0,1,5.72-5.68l82.82.33"/><line class="cls-10" x1="118.7" y1="107.07" x2="144.94" y2="133.36"/><path class="cls-14" d="M102.64,107l-66.76-.26a5.71,5.71,0,0,0-5.72,5.68l-.49,143.47a5.19,5.19,0,0,0,5.18,5.2H134.1"/><line class="cls-14" x1="144.93" y1="133.8" x2="144.63" y2="256.3"/><polyline class="cls-14" points="118.7 107.07 118.58 133.24 134.19 133.31"/><line class="cls-18" x1="44.44" y1="193.49" x2="129.72" y2="193.84"/><line class="cls-18" x1="86.26" y1="247.34" x2="129.72" y2="247.52"/><line class="cls-18" x1="44.44" y1="247.17" x2="75.15" y2="247.3"/><line class="cls-18" x1="44.5" y1="179.99" x2="105.68" y2="180.24"/><line class="cls-10" x1="102.38" y1="123.51" x2="42.97" y2="123.3"/><line class="cls-10" x1="54.59" y1="135.74" x2="42.97" y2="135.67"/><line class="cls-10" x1="102.38" y1="135.88" x2="62.87" y2="135.79"/><line class="cls-18" x1="115.88" y1="180.28" x2="129.72" y2="180.33"/><path class="cls-19" d="M43.12,150l11.64,17.64,10.29-6.36s9.26,4.54,8.81,4.54S85.2,150.2,85.2,150.2l6.27,3.64,8.65-2.91,9.56,18.91,13.58-18.18"/><path class="cls-20" d="M42,165.46l11.24-21.78a1.24,1.24,0,0,1,2.22,0v0l6.06,12.76-2-.33,9.92-10.3a1.25,1.25,0,0,1,1.77,0l.09.09,16.16,19-1.64-.24L97,157.35a1.23,1.23,0,0,1,1.17-.11l11.21,4.7-1.6.59,6.61-13.21,0,0a1.22,1.22,0,0,1,1.64-.55,1.34,1.34,0,0,1,.39.31l13.66,16.33a.6.6,0,0,1-.89.79l-14.64-15.46,2.06-.27L110,163.65a1.25,1.25,0,0,1-1.6.59l-11.21-4.7,1.18-.11-11.21,7.39a1.26,1.26,0,0,1-1.64-.23l-16.17-19,1.85.05-9.92,10.3a1.25,1.25,0,0,1-1.76,0,1.35,1.35,0,0,1-.27-.37l-6.06-12.76,2.23.06L43.16,166.09a.66.66,0,0,1-.9.25A.67.67,0,0,1,42,165.46Z"/><path class="cls-21" d="M49.63,213.75c4,3.92,13,9.77,18.88,15.18"/><path class="cls-21" d="M68.13,213.58c-6,6-15.58,12.55-18.29,16"/><path class="cls-22" d="M50.55,236l-5.34,0a.4.4,0,0,1-.25-.05.17.17,0,0,1-.07-.16c-.34-5.73.45-11.44.49-17.16-.05-2.23-.23-4.45-.34-6.67v-.09c1.88,0,3.76,0,5.65,0C49.9,211.83,50.38,234,50.55,236Z"/><path class="cls-23" d="M59.58,236l-5.34,0a1.71,1.71,0,0,1-.25,0,.11.11,0,0,1-.07-.11c-.35-3.51.22-13.26.1-14.63v-.05l5.64,0C58.88,221.23,59.41,234.8,59.58,236Z"/><path class="cls-22" d="M69.77,236.11l-5.34,0a.64.64,0,0,1-.25,0,.15.15,0,0,1-.07-.14c-.35-4.49.44-9,.46-13.47,0-1.75-.22-3.49-.34-5.24v-.07c1.88,0,3.76,0,5.64,0C69.09,217.16,69.6,234.53,69.77,236.11Z"/><path class="cls-23" d="M80.07,236.18s-5,0-5.34,0a.49.49,0,0,1-.25,0,.17.17,0,0,1-.07-.15c-.35-5.16.45-10.3.48-15.46,0-2-.23-4-.34-6v-.08c1.88,0,3.76,0,5.64,0C79.41,214.44,79.9,234.36,80.07,236.18Z"/><rect class="cls-14" x="44.48" y="203.65" width="5.65" height="32.05" transform="translate(-0.44 0.1) rotate(-0.12)"/><rect class="cls-14" x="54.31" y="215.78" width="5.65" height="19.9" transform="translate(-0.45 0.12) rotate(-0.12)"/><rect class="cls-14" x="64.12" y="210.97" width="5.65" height="24.69" transform="translate(-0.45 0.14) rotate(-0.12)"/><rect class="cls-14" x="73.93" y="207.31" width="5.65" height="28.33" transform="translate(-0.45 0.16) rotate(-0.12)"/><path class="cls-1" d="M127.94,203.08c1.3,0,1.73,1,1.73,2.27l.05,28.43c0,1.25-.43,2.27-1.73,2.27l-38,.13c-1.3,0-1.73-1-1.73-2.27l0-28.43c0-1.25.42-2.27,1.72-2.28Z"/><polygon class="cls-12" points="129.68 225.71 129.6 228.08 129.54 234.3 128.84 236.01 88.18 235.74 100.12 224.53 105.19 228.95 119.45 215.81 129.68 225.71"/><polyline class="cls-14" points="88.18 233.01 98.76 222.75 103.64 227.45"/><polyline class="cls-14" points="99.03 231.93 101.3 229.73 117.25 214.24 129.52 226.06"/><polygon class="cls-12" points="91.29 235.72 91.29 235.74 91.28 235.74 91.29 235.72"/><circle class="cls-24" cx="102.15" cy="212.25" r="4.57"/><path class="cls-14" d="M127.94,203.08c1.3,0,1.73,1,1.73,2.27l.05,28.43c0,1.25-.43,2.27-1.73,2.27l-38,.13c-1.3,0-1.73-1-1.73-2.27l0-28.43c0-1.25.42-2.27,1.72-2.28Z"/><path class="cls-25" d="M30.4,128.91H68.81a5,5,0,0,1,5,5v23.23a5,5,0,0,1-5,5H30.4a0,0,0,0,1,0,0V128.91A0,0,0,0,1,30.4,128.91Z"/><path class="cls-26" d="M229.78,290.79v-7.45a2,2,0,0,0-2-1.95H200.16a2.72,2.72,0,0,1-2.72-2.73V268.17a2.72,2.72,0,0,1,2.72-2.72h27.66a2,2,0,0,0,2-2v-7.44a2.32,2.32,0,0,1,3.78-1.81l20.1,16.16a3.87,3.87,0,0,1,0,6l-20.1,16.16A2.32,2.32,0,0,1,229.78,290.79Z"/><line class="cls-14" x1="209.97" y1="265.45" x2="210.39" y2="265.45"/><path class="cls-14" d="M218.15,265.45h9.67a2,2,0,0,0,2-2v-7.44a2.32,2.32,0,0,1,3.78-1.81l20.1,16.16a3.87,3.87,0,0,1,0,6l-20.1,16.16a2.32,2.32,0,0,1-3.78-1.81v-7.45a2,2,0,0,0-2-1.95H200.16a2.72,2.72,0,0,1-2.72-2.73V268.17a2.72,2.72,0,0,1,2.72-2.72h4.14"/><path class="cls-22" d="M222.77,61.35v7.44a2,2,0,0,0,1.95,2h27.66a2.72,2.72,0,0,1,2.72,2.72V84a2.72,2.72,0,0,1-2.72,2.73H224.72a2,2,0,0,0-1.95,2v7.45A2.33,2.33,0,0,1,219,97.9L198.89,81.73a3.86,3.86,0,0,1,0-6L219,59.54A2.33,2.33,0,0,1,222.77,61.35Z"/><line class="cls-14" x1="242.57" y1="86.69" x2="242.15" y2="86.69"/><path class="cls-14" d="M234.4,86.69h-9.68a2,2,0,0,0-1.95,2v7.45A2.33,2.33,0,0,1,219,97.9L198.89,81.73a3.86,3.86,0,0,1,0-6L219,59.54a2.33,2.33,0,0,1,3.79,1.81v7.44a2,2,0,0,0,1.95,2h27.66a2.72,2.72,0,0,1,2.72,2.72V84a2.72,2.72,0,0,1-2.72,2.73h-4.14"/><rect class="cls-27" x="20.47" y="119.27" width="53.34" height="33.23" rx="5"/><line class="cls-14" x1="30.46" y1="127.43" x2="63.83" y2="127.43"/><line class="cls-14" x1="30.46" y1="135.88" x2="63.83" y2="135.88"/><line class="cls-14" x1="30.46" y1="144.33" x2="54.34" y2="144.33"/><path class="cls-17" d="M412.9,202c0,.71-.09,1.43-.12,2.15"/><path class="cls-1" d="M422.53,133.8l-.31,122.5a5.7,5.7,0,0,1-5.71,5.68l-103.59-.42a5.7,5.7,0,0,1-5.67-5.72l.51-143.42a5.7,5.7,0,0,1,5.72-5.68l82.81.33"/><line class="cls-10" x1="396.29" y1="107.07" x2="422.53" y2="133.36"/><path class="cls-14" d="M380.23,107l-66.75-.26a5.7,5.7,0,0,0-5.72,5.68l-.5,143.47a5.19,5.19,0,0,0,5.18,5.2h99.25"/><line class="cls-14" x1="422.53" y1="133.8" x2="422.22" y2="256.3"/><polyline class="cls-14" points="396.29 107.07 396.17 133.24 411.79 133.31"/><line class="cls-18" x1="322.03" y1="193.49" x2="407.31" y2="193.84"/><line class="cls-18" x1="363.85" y1="247.34" x2="407.31" y2="247.52"/><line class="cls-18" x1="322.03" y1="247.17" x2="352.74" y2="247.3"/><line class="cls-18" x1="322.09" y1="179.99" x2="383.28" y2="180.24"/><line class="cls-10" x1="379.97" y1="123.51" x2="320.56" y2="123.3"/><line class="cls-10" x1="332.18" y1="135.74" x2="320.56" y2="135.67"/><line class="cls-10" x1="379.97" y1="135.88" x2="340.46" y2="135.79"/><line class="cls-18" x1="393.47" y1="180.28" x2="407.31" y2="180.33"/><path class="cls-19" d="M320.71,150l11.64,17.64,10.3-6.36s9.25,4.54,8.8,4.54,11.34-15.64,11.34-15.64l6.27,3.64,8.66-2.91,9.55,18.91,13.58-18.18"/><path class="cls-20" d="M319.6,165.46l11.24-21.78a1.24,1.24,0,0,1,1.66-.53,1.21,1.21,0,0,1,.55.57v0l6.06,12.76-2-.33,9.92-10.3a1.24,1.24,0,0,1,1.76,0l.09.09L365,165l-1.64-.24,11.2-7.38a1.23,1.23,0,0,1,1.17-.11l11.21,4.7-1.6.59L392,149.32l0,0a1.22,1.22,0,0,1,1.64-.55,1.38,1.38,0,0,1,.4.31l13.65,16.33a.6.6,0,0,1-.89.79l-14.63-15.46,2.05-.27-6.61,13.21a1.27,1.27,0,0,1-1.61.59l-11.2-4.7,1.17-.11-11.21,7.39a1.26,1.26,0,0,1-1.64-.23l-16.17-19,1.86.05-9.92,10.3a1.26,1.26,0,0,1-1.77,0,1.31,1.31,0,0,1-.26-.37l-6.07-12.76,2.23.06-12.28,21.21a.66.66,0,0,1-.9.25A.67.67,0,0,1,319.6,165.46Z"/><path class="cls-21" d="M327.22,213.75c4,3.92,13,9.77,18.88,15.18"/><path class="cls-21" d="M345.72,213.58c-6,6-15.58,12.55-18.29,16"/><path class="cls-22" d="M328.14,236s-5,0-5.34,0a.4.4,0,0,1-.25-.05.17.17,0,0,1-.07-.16c-.34-5.73.46-11.44.49-17.16-.05-2.23-.22-4.45-.33-6.67v-.09c1.88,0,3.77,0,5.65,0C327.49,211.83,328,234,328.14,236Z"/><path class="cls-23" d="M337.17,236l-5.34,0a1.57,1.57,0,0,1-.24,0,.12.12,0,0,1-.08-.11c-.35-3.51.22-13.26.1-14.63v-.05l5.65,0C336.47,221.23,337,234.8,337.17,236Z"/><path class="cls-22" d="M347.36,236.11s-5,0-5.34,0a.64.64,0,0,1-.25,0,.15.15,0,0,1-.07-.14c-.35-4.49.44-9,.47-13.47-.05-1.75-.23-3.49-.34-5.24v-.07c1.88,0,3.77,0,5.65,0C346.68,217.16,347.19,234.53,347.36,236.11Z"/><path class="cls-23" d="M357.66,236.18s-5,0-5.34,0a.51.51,0,0,1-.25,0A.17.17,0,0,1,352,236c-.34-5.16.45-10.3.48-15.46-.05-2-.22-4-.34-6v-.08c1.88,0,3.76,0,5.65,0C357,214.44,357.5,234.36,357.66,236.18Z"/><rect class="cls-14" x="322.07" y="203.65" width="5.65" height="32.05" transform="translate(-0.44 0.65) rotate(-0.12)"/><rect class="cls-14" x="331.9" y="215.78" width="5.65" height="19.9" transform="translate(-0.45 0.67) rotate(-0.12)"/><rect class="cls-14" x="341.71" y="210.97" width="5.65" height="24.69" transform="translate(-0.45 0.69) rotate(-0.12)"/><rect class="cls-14" x="351.53" y="207.31" width="5.65" height="28.33" transform="translate(-0.45 0.71) rotate(-0.12)"/><path class="cls-1" d="M405.54,203.08c1.29,0,1.72,1,1.73,2.27l0,28.43c0,1.25-.43,2.27-1.72,2.27l-38,.13c-1.29,0-1.72-1-1.73-2.27l0-28.43c0-1.25.43-2.27,1.72-2.28Z"/><polygon class="cls-12" points="407.27 225.71 407.2 228.08 407.13 234.3 406.43 236.01 365.77 235.74 377.72 224.53 382.78 228.95 397.05 215.81 407.27 225.71"/><polyline class="cls-14" points="365.77 233.01 376.35 222.75 381.24 227.45"/><polyline class="cls-14" points="376.62 231.93 378.9 229.73 394.84 214.24 407.11 226.06"/><polygon class="cls-12" points="368.88 235.72 368.88 235.74 368.87 235.74 368.88 235.72"/><circle class="cls-24" cx="379.74" cy="212.25" r="4.57"/><path class="cls-14" d="M405.54,203.08c1.29,0,1.72,1,1.73,2.27l0,28.43c0,1.25-.43,2.27-1.72,2.27l-38,.13c-1.29,0-1.72-1-1.73-2.27l0-28.43c0-1.25.43-2.27,1.72-2.28Z"/><path class="cls-25" d="M308,128.91H346.4a5,5,0,0,1,5,5v23.23a5,5,0,0,1-5,5H308a0,0,0,0,1,0,0V128.91A0,0,0,0,1,308,128.91Z"/><rect class="cls-24" x="298.06" y="119.27" width="53.34" height="33.23" rx="5"/><line class="cls-14" x1="308.05" y1="127.43" x2="341.42" y2="127.43"/><line class="cls-14" x1="308.05" y1="135.88" x2="341.42" y2="135.88"/><line class="cls-14" x1="308.05" y1="144.33" x2="331.93" y2="144.33"/></g></g></g></svg>